<svg xmlns="http://www.w3.org/2000/svg" shape-rendering="geometricPrecision" text-rendering="geometricPrecision" image-rendering="optimizeQuality" fill-rule="evenodd" clip-rule="evenodd" viewBox="0 0 512 493.03"><path fill="#0983E0" fill-rule="nonzero" d="M125.195 0h261.61C455.583 0 512 56.416 512 125.195v242.64c0 68.891-56.304 125.195-125.195 125.195h-261.61C56.416 493.03 0 436.614 0 367.835v-242.64C0 56.326 56.349 0 125.195 0z"/><path fill="#88DFF3" d="M125.195 18.969h261.61c58.432 0 106.225 47.816 106.225 106.226v242.64c0 58.409-47.816 106.225-106.225 106.225h-261.61c-58.41 0-106.226-47.793-106.226-106.225v-242.64c0-58.432 47.794-106.226 106.226-106.226z"/><path fill="#A3EDFD" d="M141.365 28.465h223.536c58.432 0 111.937 48.466 111.937 106.226v223.671c0 57.759-54.177 106.225-111.937 106.225H141.365c-57.76 0-106.225-47.794-106.225-106.225V134.691c0-58.432 47.793-106.226 106.225-106.226z"/><path fill="#E8FBFD" d="M309.448 28.465h55.453c58.432 0 111.937 48.376 111.937 106.226v36.729c-17.514-.313-9.765-39.215-22.419-66.695-24.927-54.154-81.589-61.388-144.971-76.26z"/><path fill="#fff" fill-rule="nonzero" d="M295.755 192.174l-11.321 165.619c-.725 10.474-7.643 19.206-18.891 19.206h-17.827c-7.256 0-13.836-.823-19.593-2.395-19.713-5.418-29.486-21.068-29.486-40.54 2.347-47.482 6.338-94.505 9.87-141.89h-35.364c-6.241 0-11.199-2.491-14.804-7.135l-.556-.774c-2.395-3.435-3.58-7.451-3.58-11.998.484-8.514.726-16.569 1.742-24.987l1.306-5.66c4.499-15.964 18.698-25.567 35.025-25.567h144.938c11.272 0 20.56 8.514 20.56 19.883l-1.354 20.149c-.291 4.523-1.137 8.804-2.468 12.675-1.427 4.233-3.483 8.079-6.119 11.465-3.58 4.548-8.49 7.789-14.634 9.724l-1.379.362c-4.475 1.21-9.627 1.863-15.36 1.863h-20.705z"/><path fill="#0983E0" fill-rule="nonzero" d="M281.435 176.814l-12.312 179.963c-.218 3.242-1.403 4.862-3.58 4.862h-17.827c-12.094 0-20.754-2.37-25.93-7.136-5.2-4.764-7.789-11.561-7.789-20.439 0-3.241.17-8.103.484-14.585.315-6.483.798-14.103 1.452-22.859.653-8.756 1.354-18.262 2.104-28.542a4179.315 4179.315 0 012.443-31.131c.87-10.473 1.669-20.899 2.419-31.276.774-10.377 1.475-20.003 2.128-28.857h-51.884c-2.395 0-3.58-1.523-3.58-4.547l.968-18.166a41.731 41.731 0 011.475-8.272c.75-2.685 1.983-5.128 3.725-7.281 1.717-2.177 3.943-3.894 6.652-5.2 2.685-1.282 5.999-1.935 9.893-1.935h144.938c1.306 0 2.491.314 3.58.967 1.064.653 1.62 1.838 1.62 3.556l-1.306 19.133c-.435 6.483-2.225 11.731-5.345 15.747-3.145 3.991-9.579 5.998-19.303 5.998h-35.025z"/></svg>